<?xml version="1.0" encoding="UTF-8"?>
<svg width="344px" height="202px" viewBox="0 0 344 202" version="1.1" xmlns="http://www.w3.org/2000/svg" xmlns:xlink="http://www.w3.org/1999/xlink">
    <!-- Generator: Sketch 49.3 (51167) - http://www.bohemiancoding.com/sketch -->
    <title>Group 14@3x</title>
    <desc>Created with Sketch.</desc>
    <defs></defs>
    <g id="Page-1" stroke="none" stroke-width="1" fill="none" fill-rule="evenodd">
        <g id="1.3-Onboarding" transform="translate(-203.000000, -435.000000)">
            <g id="Group-14" transform="translate(205.000000, 437.000000)">
                <polygon id="Stroke-2" stroke="#E42C85" stroke-width="2.7" stroke-linecap="round" stroke-linejoin="round" points="108 198 137.126275 155 194.873725 155 224 198"></polygon>
                <polygon id="Stroke-5" stroke="#FD2367" stroke-width="2.7" stroke-linecap="round" stroke-linejoin="round" points="224 198 253.126275 155 310.873725 155 340 198"></polygon>
                <polygon id="Fill-20-Copy" fill="#F8E71C" points="72.2924174 133 62 148 161 148 150.707583 133"></polygon>
                <polygon id="Stroke-8" stroke="#E32D86" stroke-width="2.7" stroke-linecap="round" stroke-linejoin="round" points="166 153 195.126275 110 252.873725 110 282 153"></polygon>
                <polyline id="Stroke-10" stroke="#F42874" stroke-width="2.7" stroke-linecap="round" stroke-linejoin="round" points="83.0186258 110 140.618045 110 169 152 55 152 66.0322581 134.647209"></polyline>
                <polygon id="Stroke-12" stroke="#FC2469" stroke-width="2.7" stroke-linecap="round" stroke-linejoin="round" points="112 109 141.126275 66 198.873725 66 228 109"></polygon>
                <polygon id="Stroke-14" stroke="#FE2366" stroke-width="2.7" stroke-linecap="round" stroke-linejoin="round" points="0 198 29.1262753 155 86.8737247 155 116 198"></polygon>
                <polygon id="Fill-16" fill="#F8E71C" points="19.980526 178 10 193 106 193 96.019474 178"></polygon>
                <polygon id="Fill-17" fill="#F8E71C" points="127.980526 178 118 193 214 193 204.019474 178"></polygon>
                <polygon id="Fill-19" fill="#F8E71C" points="131.980526 90 122 105 218 105 208.019474 90"></polygon>
                <polygon id="Fill-20" fill="#F8E71C" points="185.980526 133 176 148 272 148 262.019474 133"></polygon>
                <polygon id="Fill-21" fill="#F8E71C" points="243.980526 178 234 193 330 193 320.019474 178"></polygon>
                <path d="M170,50 L170,50 C165.601286,50 162,46.6206897 162,42.4931034 L162,7.50689655 C162,3.37931034 165.601286,0 170,0 L170,0 C174.398714,0 178,3.37931034 178,7.50689655 L178,42.4931034 C178,46.6206897 174.398714,50 170,50" id="Fill-22" stroke="#7600FE" stroke-width="2.7" stroke-linecap="round" stroke-linejoin="round"></path>
                <path d="M170,50 L170,50 C165.601286,50 162,46.6206897 162,42.4931034 L162,7.50689655 C162,3.37931034 165.601286,0 170,0 L170,0 C174.398714,0 178,3.37931034 178,7.50689655 L178,42.4931034 C178,46.6206897 174.398714,50 170,50 L170,50 Z" id="Stroke-24" stroke="#8D4DE8" stroke-width="2.7" stroke-linecap="round" stroke-linejoin="round"></path>
                <path d="M127.629561,54.7949408 L127.629561,54.7949408 C124.468976,57.7350197 119.300842,57.7350197 116.143988,54.7949408 L89.3704387,29.8893131 C86.2098538,26.9527053 86.2098538,22.141667 89.3704387,19.2050592 L89.3704387,19.2050592 C92.5272921,16.2649803 97.6991582,16.2649803 100.856012,19.2050592 L127.629561,44.1106869 C130.790146,47.0472947 130.790146,51.8548618 127.629561,54.7949408" id="Fill-26" stroke="#7600FE" stroke-width="2.7" stroke-linecap="round" stroke-linejoin="round"></path>
                <path d="M127.629561,54.7949408 L127.629561,54.7949408 C124.468976,57.7350197 119.300842,57.7350197 116.143988,54.7949408 L89.3704387,29.8893131 C86.2098538,26.9527053 86.2098538,22.141667 89.3704387,19.2050592 L89.3704387,19.2050592 C92.5272921,16.2649803 97.6991582,16.2649803 100.856012,19.2050592 L127.629561,44.1106869 C130.790146,47.0472947 130.790146,51.8548618 127.629561,54.7949408 L127.629561,54.7949408 Z" id="Stroke-28" stroke="#8D4DE8" stroke-width="2.7" stroke-linecap="round" stroke-linejoin="round"></path>
                <path d="M211.370439,54.7949408 L211.370439,54.7949408 C214.531024,57.7350197 219.699158,57.7350197 222.856012,54.7949408 L249.629561,29.8893131 C252.790146,26.9527053 252.790146,22.141667 249.629561,19.2050592 L249.629561,19.2050592 C246.472708,16.2649803 241.300842,16.2649803 238.143988,19.2050592 L211.370439,44.1106869 C208.209854,47.0472947 208.209854,51.8548618 211.370439,54.7949408" id="Fill-30" stroke="#7600FE" stroke-width="2.7" stroke-linecap="round" stroke-linejoin="round"></path>
                <ellipse id="Oval-2-Copy" fill="#8D4DE8" cx="73.5" cy="120" rx="5.5" ry="5"></ellipse>
            </g>
        </g>
    </g>
</svg>