<?xml version="1.0" encoding="UTF-8"?>
<svg width="80px" height="123px" viewBox="0 0 80 123" version="1.1" xmlns="http://www.w3.org/2000/svg" xmlns:xlink="http://www.w3.org/1999/xlink">
    <!-- Generator: Sketch 49.3 (51167) - http://www.bohemiancoding.com/sketch -->
    <title>Group 17@3x</title>
    <desc>Created with Sketch.</desc>
    <defs></defs>
    <g id="Page-1" stroke="none" stroke-width="1" fill="none" fill-rule="evenodd">
        <g id="1.1-Onboarding" transform="translate(-334.000000, -321.000000)">
            <g id="Group-17" transform="translate(336.000000, 323.000000)">
                <polygon id="Stroke-3" stroke="#F5A623" stroke-width="2.7" stroke-linecap="round" stroke-linejoin="round" points="48.2484518 64.8962509 48.1317073 78.8333333 63.0636439 78.8333333 63.0527796 57.5149813"></polygon>
                <polygon id="Stroke-3-Copy-3" stroke="#F5A623" stroke-width="2.7" stroke-linecap="round" stroke-linejoin="round" points="19.9292217 75.9160848 20.3634146 78.8333333 35.2953512 78.8333333 35.1071849 69.6882629"></polygon>
                <path d="M60.222022,94.556 L20.8965659,94.556 C16.512878,94.556 12.9585366,91.036 12.9585366,86.6946667 L12.9585366,86.6946667 C12.9585366,82.3533333 16.512878,78.8333333 20.8965659,78.8333333 L60.222022,78.8333333 C64.6057098,78.8333333 68.1600512,82.3533333 68.1600512,86.6946667 L68.1600512,86.6946667 C68.1600512,91.036 64.6057098,94.556 60.222022,94.556 L60.222022,94.556 Z" id="Stroke-15" stroke="#9B9B9B" stroke-width="2.7" stroke-linecap="round" stroke-linejoin="round"></path>
                <path d="M52.1994305,16.4303689 L10.5807033,34.9326656 C7.2788346,36.4002078 3.44866685,34.8309702 2.02468852,31.4296517 L0.533913755,27.8703142 C-0.890064582,24.4674311 0.632590292,20.5200868 3.93294094,19.0525445 L45.5531862,0.550247822 C48.8535369,-0.9172944 52.6852227,0.651943179 54.1092011,4.05326172 L55.5984577,7.6125992 C57.0224361,11.0154823 55.5012993,14.9628267 52.1994305,16.4303689 L52.1994305,16.4303689 Z" id="Stroke-25" stroke="#F8E71C" stroke-width="2.7" stroke-linecap="round" stroke-linejoin="round"></path>
                <path d="M71.0585029,32.0864473 L20.30732,53.7674473 C16.2809175,55.487114 11.6102907,53.6482807 9.87384681,49.662614 L8.05594925,45.4917807 C6.31950535,41.5042807 8.17627852,36.8787807 12.2008297,35.159114 L62.9538639,13.478114 C66.9784151,11.7584473 71.6508932,13.5972807 73.3873371,17.5829473 L75.2033834,21.7537807 C76.9398273,25.7412807 75.0849053,30.3667807 71.0585029,32.0864473 L71.0585029,32.0864473 Z" id="Stroke-29" stroke="#7600FE" stroke-width="2.7" stroke-linecap="round" stroke-linejoin="round"></path>
                <path d="M71.0585029,32.0864473 L20.30732,53.7674473 C16.2809175,55.487114 11.6102907,53.6482807 9.87384681,49.662614 L8.05594925,45.4917807 C6.31950535,41.5042807 8.17627852,36.8787807 12.2008297,35.159114 L62.9538639,13.478114 C66.9784151,11.7584473 71.6508932,13.5972807 73.3873371,17.5829473 L75.2033834,21.7537807 C76.9398273,25.7412807 75.0849053,30.3667807 71.0585029,32.0864473 L71.0585029,32.0864473 Z" id="Stroke-33" stroke="#F5A623" stroke-width="2.7" stroke-linecap="round" stroke-linejoin="round"></path>
                <path d="M71.0585029,54.0864473 L20.30732,75.7674473 C16.2809175,77.487114 11.6102907,75.6482807 9.87384681,71.662614 L8.05594925,67.4917807 C6.31950535,63.5042807 8.17627852,58.8787807 12.2008297,57.159114 L62.9538639,35.478114 C66.9784151,33.7584473 71.6508932,35.5972807 73.3873371,39.5829473 L75.2033834,43.7537807 C76.9398273,47.7412807 75.0849053,52.3667807 71.0585029,54.0864473 L71.0585029,54.0864473 Z" id="Stroke-37" stroke="#7600FE" stroke-width="2.7" stroke-linecap="round" stroke-linejoin="round"></path>
                <path d="M20.30732,75.7674473 C16.2809175,77.487114 11.6102907,75.6482807 9.87384681,71.662614 L8.05594925,67.4917807 C6.31950535,63.5042807 8.17627852,58.8787807 12.2008297,57.159114 C12.2008297,57.159114 23.9888736,52.1234233 29.8828956,49.605578 C40.9065517,44.8964233 62.9538639,35.478114 62.9538639,35.478114 C66.9784151,33.7584473 71.6508932,35.5972807 73.3873371,39.5829473 L75.2033834,43.7537807 C76.9398273,47.7412807 75.0849053,52.3667807 71.0585029,54.0864473 L20.30732,75.7674473 Z" id="Stroke-41" stroke="#F8E71C" stroke-width="2.7" stroke-linecap="round" stroke-linejoin="round"></path>
                <path d="M64.9518878,95.3333333 L16.6609756,95.3333333 C16.6609756,101.145701 18.7173824,106.478077 22.1427784,110.643489" id="Stroke-43" stroke="#9B9B9B" stroke-width="2.7" stroke-linecap="round" stroke-linejoin="round"></path>
                <path d="M64.9518878,95.3333333 L16.6609756,95.3333333 C16.6609756,97.8392033 16.6609756,108.486207 27.9382562,115.550735 C34.4944192,119.657771 40.7631265,119.750941 44.8627583,119.109154" id="Stroke-43-Copy" stroke="#9B9B9B" stroke-width="2.7" stroke-linecap="round" stroke-linejoin="round" transform="translate(40.806432, 107.368538) scale(-1, 1) translate(-40.806432, -107.368538) "></path>
                <ellipse id="Oval-2-Copy" fill="#7600FE" cx="28.6939024" cy="116.416667" rx="2.77682927" ry="2.75"></ellipse>
            </g>
        </g>
    </g>
</svg>