<?xml version="1.0" encoding="UTF-8"?>
<svg width="248px" height="200px" viewBox="0 0 248 200" version="1.1" xmlns="http://www.w3.org/2000/svg" xmlns:xlink="http://www.w3.org/1999/xlink">
    <!-- Generator: Sketch 49.3 (51167) - http://www.bohemiancoding.com/sketch -->
    <title>Group 9@3x</title>
    <desc>Created with Sketch.</desc>
    <defs></defs>
    <g id="Page-1" stroke="none" stroke-width="1" fill="none" fill-rule="evenodd">
        <g id="1.2-Onboarding" transform="translate(-250.000000, -439.000000)">
            <g id="Group-9" transform="translate(252.000000, 441.000000)">
                <path d="M123,29.902829 L123,21.684879 C123,11.4069628 131.708134,3 142.351105,3 L196.663006,3 L246,49.78205 L246,58 L196.663006,11.21795 L142.351105,11.21795 C131.708134,11.21795 123,19.6249128 123,29.902829 Z" id="Combined-Shape-Copy-2" fill="#FFFFFF"></path>
                <path d="M189,2 L189,32.8087822 C189,32.8087822 189.807477,49 204.211724,49 L239,49 L189,2 L189,2 Z" id="Stroke-9" stroke="#F42872" stroke-width="2.7" stroke-linecap="round" stroke-linejoin="round"></path>
                <path d="M213.620368,81 L146.379632,81 C144.518615,81 143,78.9737336 143,76.5 C143,74.022045 144.518615,72 146.379632,72 L213.620368,72 C215.478214,72 217,74.022045 217,76.5 C217,78.9737336 215.478214,81 213.620368,81" id="Fill-11" fill="#8D4DE8"></path>
                <path d="M213.620368,102 L146.379632,102 C144.518615,102 143,99.7485929 143,97 L143,97 C143,94.2467167 144.518615,92 146.379632,92 L213.620368,92 C215.478214,92 217,94.2467167 217,97 L217,97 C217,99.7485929 215.478214,102 213.620368,102" id="Fill-13" fill="#8D4DE8"></path>
                <path d="M1,162 C1,162 7.58033667,178 22.9710117,178 L118.520213,178 C134.44508,178 144,162 144,162" id="Path-628" stroke="#8D4DE8" stroke-width="2.7" stroke-linecap="round"></path>
                <path d="M22.6549521,196 C10.1948882,196 0,186.108672 0,174.016049 L0,22.9839512 C0,10.8913277 10.1948882,1 22.6549521,1 L86.2396166,1 L144,56.042064 L144,174.016049 C144,186.108672 133.808307,196 121.348243,196 L22.6549521,196 Z" id="Stroke-19" stroke="#FB246A" stroke-width="2.7"></path>
                <path d="M120,33.2596949 L120,18.6018048 C120,8.36958497 128.566538,0 139.036453,0 L192.465233,0 L241,46.5740541 L241,146.398195 C241,156.630415 232.436147,165 221.966232,165 L194.687434,165" id="Stroke-19-Copy" stroke="#E42C85" stroke-width="2.7" stroke-linecap="round"></path>
                <path d="M86,2 L86,37.3973142 C86,37.3973142 86.9367257,56 103.643805,56 L144,56 L86,2 L86,2 Z" id="Stroke-25" stroke="#F8256D" stroke-width="2.7" stroke-linecap="round" stroke-linejoin="round"></path>
                <path d="M111.116205,93 L33.8837955,93 C31.7486583,93 30,90.747858 30,87.99796 L30,87.99796 C30,85.248062 31.7486583,83 33.8837955,83 L111.116205,83 C113.251342,83 115,85.248062 115,87.99796 L115,87.99796 C115,90.747858 113.251342,93 111.116205,93" id="Fill-27" fill="#8D4DE8"></path>
                <path d="M111.116205,117 L33.8837955,117 C31.7486583,117 30,114.522644 30,111.497756 L30,111.497756 C30,108.472868 31.7486583,106 33.8837955,106 L111.116205,106 C113.251342,106 115,108.472868 115,111.497756 L115,111.497756 C115,114.522644 113.251342,117 111.116205,117" id="Fill-29" fill="#8D4DE8"></path>
                <circle id="Oval-2-Copy-2" fill="#8D4DE8" cx="178.5" cy="165.5" r="6.5"></circle>
                <path d="M161,165 L147,165" id="Path-628" stroke="#7600FE" stroke-width="2.7" stroke-linecap="round"></path>
            </g>
        </g>
    </g>
</svg>