<?xml version="1.0" encoding="UTF-8"?>
<svg width="193px" height="153px" viewBox="0 0 193 153" version="1.1" xmlns="http://www.w3.org/2000/svg" xmlns:xlink="http://www.w3.org/1999/xlink">
    <!-- Generator: Sketch 49.3 (51167) - http://www.bohemiancoding.com/sketch -->
    <title>Group 4@3x</title>
    <desc>Created with Sketch.</desc>
    <defs></defs>
    <g id="Page-1" stroke="none" stroke-width="1" fill="none" fill-rule="evenodd">
        <g id="1.1-Onboarding" transform="translate(-278.000000, -485.000000)">
            <g id="Group-4" transform="translate(280.000000, 487.000000)">
                <g id="Group-13">
                    <path d="M105.76893,52.256169 C102.199043,47.0310376 88.491175,46.8007615 85.3307014,46.8173794 C82.1702279,46.8007615 68.4623603,47.0310376 64.8924731,52.256169 L68.5647137,56.8925531 C68.5647137,56.8925531 73.4502167,53.6686874 85.3307014,53.5476144 C97.2136826,53.6686874 102.099186,56.8925531 102.099186,56.8925531 L105.76893,52.256169 Z" id="Fill-5" fill=""></path>
                    <path d="M105.816229,19.5768158 C105.816229,30.3399127 97.5487828,39.0664544 87.3519226,39.0664544 C77.1530032,39.0664544 68.8876161,30.3399127 68.8876161,19.5768158 C68.8876161,8.81371879 77.1530032,0.0871771212 87.3519226,0.0871771212 C97.5487828,0.0871771212 105.816229,8.81371879 105.816229,19.5768158 L105.816229,19.5768158 Z" id="Combined-Shape" fill="#F8E71C"></path>
                    <path d="M67.9527296,21.2018361 C57.3315956,22.6935993 48.4191372,25.5932108 41.0535119,29.500452 L28.0962829,14.4143924 C28.0962829,14.4143924 19.0352351,9.29691689 20.433331,20.6215512 C21.2537013,27.2753457 22.2358348,37.3596245 22.9083073,44.5703682 C18.4598205,50.3685594 15.5064874,56.8124889 13.8980994,63.4716645 L10.3577972,63.4716645 C4.71457384,63.4716645 0.0973911201,68.8474353 0.0973911201,75.4178219 L0.0973911201,84.4016552 C0.0973911201,90.9720417 4.71457384,96.3478126 10.3577972,96.3478126 L18.2703265,96.3478126 C22.2612547,103.321786 28.117081,109.897553 35.2716344,115.518167 L29.6676964,138.14322 C29.6676964,144.420334 33.1525371,149.556643 37.4392607,149.556643 L52.2844969,149.556643 C56.5735315,149.556643 60.5505943,144.899256 62.3692743,138.14322 L63.418424,129.96925 C70.4782304,132.035613 77.9124029,133.208704 85.4921623,133.208704 C90.3820315,133.208704 95.0269451,132.877763 99.4523229,132.280455 L100.205677,138.14322 C102.022046,144.899256 106.00142,149.556643 110.288144,149.556643 L125.13338,149.556643 C129.422414,149.556643 132.904944,144.420334 132.904944,138.14322 L129.057292,122.599763 C148.392611,111.533423 158.58369,93.4177753 158.58369,76.128134" id="Stroke-11" stroke="#DA318E" stroke-width="2.7" stroke-linecap="round" stroke-linejoin="round"></path>
                    <path d="M105.816229,19.5768158 C105.816229,30.3399127 97.5487828,39.0664544 87.3519226,39.0664544 C77.1530032,39.0664544 68.8876161,30.3399127 68.8876161,19.5768158 C68.8876161,8.81371879 77.1530032,0.0871771212 87.3519226,0.0871771212 C97.5487828,0.0871771212 105.816229,8.81371879 105.816229,19.5768158" id="Fill-13" stroke="#EF2777" stroke-width="2.7" stroke-linecap="round" stroke-linejoin="round"></path>
                    <path d="M158.582997,79.8570484 C158.582997,79.8570484 176.265517,72.1568171 177.008242,85.2946895 C177.750967,98.432562 146.806391,84.2674544 189.603939,68.5515152" id="Path-330" stroke="#7600FE" stroke-width="2.7" stroke-linecap="round" stroke-linejoin="round"></path>
                    <path d="M25.7688172,57.6840909 C25.7688172,57.6840909 32.830539,72.0314772 43.333056,59.0108552" id="Path-331" stroke="#DE2E8B" stroke-width="2.7" stroke-linecap="round"></path>
                    <path d="M25.7688172,62.9313434 C25.7688172,62.9313434 32.830539,77.2787297 43.333056,64.2581077" id="Path-331" stroke="#7600FE" stroke-width="2.7" stroke-linecap="round" stroke-linejoin="round"></path>
                    <path d="M124.009526,27.255303 C124.009526,27.255303 135.334795,28.3420455 148.719203,46.8166667 C156.170702,57.1020384 158.935227,69.932565 158.583333,79.4189394 C158.303154,86.9720243 155.494624,92.4598485 155.494624,92.4598485" id="Path-591" stroke="#E82B80" stroke-width="2.7" stroke-linecap="round" stroke-linejoin="round"></path>
                    <ellipse id="Oval-16" fill="#7600FE" cx="115.341398" cy="23.9950758" rx="3.08870968" ry="3.26022727"></ellipse>
                </g>
            </g>
        </g>
    </g>
</svg>